<?xml version="1.0" encoding="utf-8"?>
<!-- Generator: Adobe Illustrator 25.0.0, SVG Export Plug-In . SVG Version: 6.00 Build 0)  -->
<svg version="1.1" id="Layer_1" xmlns="http://www.w3.org/2000/svg" xmlns:xlink="http://www.w3.org/1999/xlink" x="0px" y="0px"
	 viewBox="0 0 102.45 102.45" style="enable-background:new 0 0 102.45 102.45;" xml:space="preserve">
<style type="text/css">
	.st0{fill:#003023;}
	.st1{fill:#E0FEF1;}
	.st2{fill:#A6ED45;}
	.st3{fill:none;}
	.st4{fill:#FFFFFF;}
</style>
<circle class="st0" cx="51.22" cy="51.22" r="51.22"/>
<g>
	<g>
		<path class="st1" d="M62.24,70.74c-3.53-2.54-5.45-6.28-5.74-11.2h15.15c0.21,2.61,1.37,3.92,3.47,3.92
			c0.77,0,1.42-0.18,1.96-0.55c0.53-0.36,0.8-0.93,0.8-1.7c0-1.07-0.58-1.94-1.73-2.6c-1.15-0.66-2.95-1.42-5.39-2.28
			c-2.91-1.03-5.32-2.03-7.22-3.02c-1.9-0.98-3.54-2.42-4.91-4.3c-1.37-1.88-2.03-4.3-1.99-7.25c0-2.95,0.76-5.47,2.28-7.54
			s3.59-3.65,6.23-4.72c2.63-1.07,5.59-1.6,8.89-1.6c5.56,0,9.98,1.28,13.25,3.85c3.27,2.57,5,6.18,5.17,10.85H77.1
			c-0.04-1.28-0.36-2.2-0.96-2.76c-0.6-0.56-1.33-0.83-2.18-0.83c-0.6,0-1.09,0.2-1.48,0.61c-0.38,0.41-0.58,0.97-0.58,1.7
			c0,1.03,0.57,1.87,1.7,2.54c1.13,0.66,2.94,1.47,5.42,2.41c2.87,1.07,5.23,2.1,7.09,3.08c1.86,0.98,3.48,2.35,4.85,4.11
			s2.05,3.96,2.05,6.61c0,2.78-0.68,5.27-2.05,7.48c-1.37,2.2-3.36,3.93-5.97,5.17c-2.61,1.24-5.71,1.86-9.31,1.86
			C70.25,74.55,65.77,73.28,62.24,70.74z"/>
	</g>
	<g>
		<path class="st2" d="M42.85,31.55c3.57,1.93,6.32,4.6,8.25,8.02c1.93,3.42,2.89,7.32,2.89,11.68c0,4.32-0.96,8.22-2.89,11.68
			c-1.93,3.47-4.68,6.19-8.25,8.18c-3.57,1.99-7.73,2.98-12.48,2.98H11.43V28.66h18.93C35.12,28.66,39.28,29.62,42.85,31.55z
			 M36.72,58.76c1.88-1.75,2.82-4.26,2.82-7.51c0-3.25-0.94-5.75-2.82-7.51c-1.88-1.75-4.43-2.63-7.64-2.63h-3.4V61.4h3.4
			C32.29,61.4,34.84,60.52,36.72,58.76z"/>
	</g>
</g>
</svg>
