<?xml version="1.0" encoding="utf-8"?>
<!-- Generator: Adobe Illustrator 25.0.0, SVG Export Plug-In . SVG Version: 6.00 Build 0)  -->
<svg version="1.1" id="Layer_1" xmlns="http://www.w3.org/2000/svg" xmlns:xlink="http://www.w3.org/1999/xlink" x="0px" y="0px"
	 viewBox="0 0 407.44 30.56" style="enable-background:new 0 0 407.44 30.56;" xml:space="preserve">
<style type="text/css">
	.st0{fill:#003023;}
	.st1{fill:#E0FEF1;}
	.st2{fill:#A6ED45;}
</style>
<rect y="0.86" class="st0" width="407.44" height="28.56"/>
<g>
	<path class="st1" d="M125.73,23.25c-1.66-1.2-2.57-2.96-2.71-5.28h7.14c0.1,1.23,0.65,1.85,1.63,1.85c0.36,0,0.67-0.09,0.92-0.26
		c0.25-0.17,0.38-0.44,0.38-0.8c0-0.5-0.27-0.91-0.82-1.22c-0.54-0.31-1.39-0.67-2.54-1.07c-1.37-0.48-2.51-0.96-3.4-1.42
		s-1.67-1.14-2.31-2.03s-0.96-2.03-0.94-3.42c0-1.39,0.36-2.58,1.07-3.55c0.72-0.98,1.69-1.72,2.93-2.22
		c1.24-0.5,2.64-0.76,4.19-0.76c2.62,0,4.71,0.61,6.25,1.82c1.54,1.21,2.35,2.91,2.43,5.11h-7.23c-0.02-0.6-0.17-1.04-0.45-1.3
		c-0.28-0.26-0.63-0.39-1.03-0.39c-0.28,0-0.51,0.1-0.7,0.29c-0.18,0.19-0.27,0.46-0.27,0.8c0,0.48,0.27,0.88,0.8,1.19
		c0.53,0.31,1.39,0.69,2.56,1.13c1.35,0.5,2.47,0.99,3.34,1.45c0.88,0.46,1.64,1.11,2.28,1.94s0.97,1.87,0.97,3.12
		c0,1.31-0.32,2.49-0.97,3.52s-1.58,1.85-2.81,2.43c-1.23,0.59-2.69,0.88-4.39,0.88C129.51,25.05,127.4,24.45,125.73,23.25z"/>
	<path class="st1" d="M149.31,8.77v2.63h6.66v5.05h-6.66v3.03h7.56v5.35H142.6V3.42h14.28v5.35H149.31z"/>
	<path class="st1" d="M176.24,3.42v5.32h-5.69v16.1h-6.72V8.74h-5.63V3.42H176.24z"/>
	<path class="st1" d="M191.79,21.6h-7.14l-1.06,3.24h-7.05l7.84-21.42h7.74l7.81,21.42h-7.08L191.79,21.6z M190.15,16.55l-1.94-5.96
		l-1.94,5.96H190.15z"/>
	<path class="st1" d="M214.57,10.74c-0.26-0.42-0.64-0.75-1.12-0.98c-0.48-0.23-1.07-0.35-1.75-0.35c-1.29,0-2.29,0.42-3,1.26
		s-1.06,1.98-1.06,3.43c0,1.67,0.39,2.92,1.18,3.75c0.79,0.83,2,1.24,3.63,1.24c1.55,0,2.8-0.62,3.75-1.88h-5.35v-4.75h10.92v6.72
		c-0.93,1.59-2.21,2.96-3.84,4.1s-3.7,1.71-6.2,1.71c-2.22,0-4.15-0.46-5.79-1.38c-1.64-0.92-2.9-2.2-3.78-3.86
		c-0.88-1.65-1.32-3.54-1.32-5.66s0.44-4,1.32-5.66c0.88-1.65,2.13-2.94,3.77-3.86c1.63-0.92,3.55-1.38,5.75-1.38
		c2.8,0,5.09,0.68,6.85,2.03c1.76,1.35,2.81,3.19,3.13,5.51H214.57z"/>
	<path class="st1" d="M237.92,21.6h-7.14l-1.06,3.24h-7.05l7.84-21.42h7.74l7.81,21.42h-7.08L237.92,21.6z M236.29,16.55l-1.94-5.96
		l-1.94,5.96H236.29z"/>
	<path class="st1" d="M268.12,24.84h-6.72l-7.11-10.77v10.77h-6.72V3.42h6.72l7.11,10.95V3.42h6.72V24.84z"/>
	<path class="st1" d="M277.86,8.77v2.63h6.66v5.05h-6.66v3.03h7.56v5.35h-14.28V3.42h14.28v5.35H277.86z"/>
</g>
<g>
	<path class="st2" d="M308.76,3.75l-0.39,2.15h-9.14l-1.27,7.23h7.44l-0.39,2.15h-7.44l-1.69,9.56h-2.75l3.75-21.09H308.76z"/>
	<path class="st2" d="M314.87,3.75l-3.75,21.09h-2.75l3.75-21.09H314.87z"/>
	<path class="st2" d="M332.5,3.75l-0.39,2.15h-5.75l-3.33,18.94h-2.75l3.33-18.94h-5.75l0.39-2.15H332.5z"/>
	<path class="st1" d="M348.75,24.84H346l-8.08-16.79l-3,16.79h-2.75l3.75-21.12h2.75l8.11,16.76l2.96-16.76h2.75L348.75,24.84z"/>
	<path class="st1" d="M359.55,5.9l-1.27,7.23h7.65l-0.36,2.12h-7.65l-1.33,7.41h8.59l-0.39,2.18h-11.34l3.75-21.12h11.31l-0.39,2.18
		H359.55z"/>
	<path class="st1" d="M371.39,23.64c-1.22-0.94-1.83-2.19-1.83-3.77c0-0.3,0.01-0.52,0.03-0.67h2.72c-0.06,0.99,0.24,1.83,0.91,2.54
		c0.67,0.71,1.68,1.06,3.06,1.06c1.37,0,2.46-0.31,3.27-0.94s1.21-1.5,1.21-2.63c0-0.69-0.2-1.27-0.59-1.74
		c-0.39-0.47-0.88-0.87-1.45-1.18c-0.58-0.31-1.36-0.66-2.34-1.04c-1.21-0.48-2.18-0.94-2.92-1.36c-0.74-0.42-1.36-1-1.86-1.72
		s-0.74-1.64-0.7-2.75c0-1.17,0.31-2.21,0.94-3.12s1.49-1.61,2.59-2.1c1.1-0.49,2.35-0.74,3.77-0.74c1.37,0,2.56,0.23,3.55,0.7
		c1,0.46,1.75,1.11,2.25,1.94c0.5,0.83,0.73,1.75,0.67,2.78h-2.87c0.04-0.52-0.08-1.03-0.35-1.51c-0.27-0.48-0.7-0.88-1.27-1.18
		c-0.58-0.3-1.29-0.45-2.13-0.45c-1.31,0-2.37,0.31-3.16,0.92c-0.8,0.62-1.2,1.46-1.2,2.53c0,0.63,0.19,1.16,0.56,1.62
		c0.37,0.45,0.84,0.84,1.41,1.15c0.56,0.31,1.34,0.68,2.33,1.1c1.19,0.5,2.16,0.97,2.92,1.41c0.76,0.43,1.4,1.01,1.92,1.74
		c0.52,0.73,0.79,1.63,0.79,2.72c0,1.17-0.3,2.21-0.91,3.13c-0.61,0.92-1.47,1.64-2.6,2.18c-1.13,0.53-2.44,0.8-3.93,0.8
		C374.2,25.05,372.61,24.58,371.39,23.64z"/>
	<path class="st1" d="M389,23.64c-1.22-0.94-1.83-2.19-1.83-3.77c0-0.3,0.01-0.52,0.03-0.67h2.72c-0.06,0.99,0.24,1.83,0.91,2.54
		c0.67,0.71,1.68,1.06,3.06,1.06c1.37,0,2.46-0.31,3.27-0.94s1.21-1.5,1.21-2.63c0-0.69-0.2-1.27-0.59-1.74
		c-0.39-0.47-0.88-0.87-1.45-1.18c-0.57-0.31-1.36-0.66-2.34-1.04c-1.21-0.48-2.18-0.94-2.92-1.36c-0.74-0.42-1.36-1-1.86-1.72
		c-0.5-0.73-0.74-1.64-0.7-2.75c0-1.17,0.31-2.21,0.94-3.12c0.62-0.91,1.49-1.61,2.59-2.1s2.35-0.74,3.77-0.74
		c1.37,0,2.56,0.23,3.55,0.7c1,0.46,1.75,1.11,2.25,1.94c0.5,0.83,0.73,1.75,0.67,2.78h-2.87c0.04-0.52-0.08-1.03-0.35-1.51
		c-0.27-0.48-0.7-0.88-1.27-1.18c-0.57-0.3-1.29-0.45-2.13-0.45c-1.31,0-2.36,0.31-3.16,0.92c-0.8,0.62-1.2,1.46-1.2,2.53
		c0,0.63,0.19,1.16,0.56,1.62c0.37,0.45,0.84,0.84,1.41,1.15c0.56,0.31,1.34,0.68,2.33,1.1c1.19,0.5,2.16,0.97,2.92,1.41
		c0.76,0.43,1.4,1.01,1.92,1.74c0.52,0.73,0.79,1.63,0.79,2.72c0,1.17-0.3,2.21-0.91,3.13c-0.6,0.92-1.47,1.64-2.6,2.18
		c-1.13,0.53-2.44,0.8-3.93,0.8C391.81,25.05,390.22,24.58,389,23.64z"/>
</g>
<g>
	<path class="st2" d="M18.82,4.78c1.68,0.91,2.98,2.17,3.89,3.78c0.91,1.61,1.36,3.45,1.36,5.51c0,2.04-0.45,3.87-1.36,5.51
		s-2.2,2.92-3.89,3.86c-1.68,0.94-3.65,1.41-5.88,1.41H4.01V3.42h8.92C15.17,3.42,17.14,3.87,18.82,4.78z M15.93,17.61
		c0.89-0.83,1.33-2.01,1.33-3.54c0-1.53-0.44-2.71-1.33-3.54c-0.89-0.83-2.09-1.24-3.6-1.24h-1.6v9.56h1.6
		C13.84,18.85,15.04,18.43,15.93,17.61z"/>
	<path class="st2" d="M33.2,8.77v2.63h6.66v5.05H33.2v3.03h7.56v5.35H26.49V3.42h14.28v5.35H33.2z"/>
	<path class="st2" d="M54.08,24.84l-4.02-7.68h-0.03v7.68h-6.72V3.42h9.98c1.73,0,3.22,0.31,4.45,0.92
		c1.23,0.62,2.15,1.45,2.77,2.51c0.62,1.06,0.92,2.25,0.92,3.58c0,1.43-0.4,2.7-1.2,3.81c-0.8,1.11-1.94,1.91-3.43,2.39l4.66,8.2
		H54.08z M50.02,12.67h2.66c0.65,0,1.13-0.15,1.45-0.44s0.48-0.75,0.48-1.38c0-0.56-0.17-1.01-0.5-1.33
		c-0.33-0.32-0.81-0.48-1.44-0.48h-2.66V12.67z"/>
	<path class="st2" d="M70.29,3.42v21.42h-6.72V3.42H70.29z"/>
	<path class="st2" d="M74,8.44c0.86-1.65,2.08-2.94,3.68-3.86c1.59-0.92,3.47-1.38,5.63-1.38c1.86,0,3.51,0.35,4.98,1.04
		s2.65,1.68,3.57,2.95c0.92,1.27,1.53,2.75,1.83,4.45H86.6c-0.32-0.71-0.78-1.26-1.38-1.65c-0.59-0.39-1.28-0.59-2.04-0.59
		c-1.13,0-2.02,0.42-2.68,1.27c-0.66,0.85-0.98,1.99-0.98,3.42c0,1.43,0.33,2.57,0.98,3.42c0.66,0.85,1.55,1.27,2.68,1.27
		c0.77,0,1.45-0.2,2.04-0.59c0.59-0.39,1.05-0.94,1.38-1.65h7.08c-0.3,1.69-0.91,3.18-1.83,4.45c-0.92,1.27-2.11,2.25-3.57,2.95
		c-1.46,0.7-3.12,1.04-4.98,1.04c-2.16,0-4.03-0.46-5.63-1.38c-1.59-0.92-2.82-2.2-3.68-3.86s-1.29-3.54-1.29-5.66
		S73.14,10.09,74,8.44z"/>
	<path class="st2" d="M109.05,24.84l-6.23-9.29v9.29H96.1V3.42h6.72v9.02l6.14-9.02h7.59l-7.38,10.26l7.87,11.16H109.05z"/>
</g>
</svg>
